<?xml version="1.0" encoding="UTF-8"?>
<svg id="_图层_1" data-name="图层 1" xmlns="http://www.w3.org/2000/svg" viewBox="0 0 320 328">
    <defs>
        <style>
            .cls-1, .cls-2 {
            fill: #fff;
            }

            .cls-2 {
            fill-rule: evenodd;
            }

            .cls-3 {
            fill: #dbdbdb;
            stroke: #fff;
            stroke-miterlimit: 10;
            }

            .cls-4 {
            fill: #26c6da;
            }
        </style>
    </defs>
    <rect class="cls-4" y="0" width="320" height="328" rx="60" ry="60"/>
    <path class="cls-2"
          d="m121.7,28c-13.49,24.28-41.27,74.45-41.27,74.45,0,0-16.19-49.1-24.28-73.64-6.2-.27-12.41-.54-18.61-.81,12.14,36.14,38.04,110.87,38.04,110.87,0,0,48.29-83.9,63.12-110.87h-16.99Zm91.45,79.31c1.62-15.37,3.24-30.75,4.86-46.13h-71.22c-2.7,25.89-5.4,51.8-8.09,77.69h67.98c1.62-5.39,3.24-10.79,4.86-16.19h-55.03c.54-5.12,1.08-10.25,1.62-15.38h55.03Zm-51.79-28.32v-1.62h40.46c-.54,5.12-1.08,10.25-1.62,15.38h-40.46c.54-4.59,1.08-9.17,1.62-13.76Z"/>
    <g>
        <path class="cls-1"
              d="m257.2,164.64c-.82-.82-2.19-1.09-3.42-.68l-130.22,52.66c-1.09.41-1.91,1.5-1.91,2.74s.68,2.33,1.78,2.87l43.63,20.52,36.38-26.67c1.37-1.09,3.28.68,2.19,2.19l-26.67,36.38,20.52,43.63c.55,1.09,1.64,1.78,2.87,1.78h.14c1.23,0,2.33-.82,2.74-1.92l52.66-130.22c.41-1.09.14-2.46-.68-3.28h0Z"/>
        <path class="cls-3"
              d="m281.96,180.1c-.82-.82-2.19-1.09-3.42-.68l-130.22,52.66c-1.09.41-1.91,1.5-1.91,2.74s.68,2.33,1.78,2.87l43.63,20.52,36.38-26.67c1.37-1.09,3.28.68,2.19,2.19l-26.67,36.38,20.52,43.63c.55,1.09,1.64,1.78,2.87,1.78h.14c1.23,0,2.33-.82,2.74-1.92l52.66-130.22c.55-1.09.27-2.33-.68-3.28h0Z"/>
        <path class="cls-1"
              d="m282.09,57.16h-10.51v-10.51c0-2.36-1.81-4.17-4.17-4.17s-4.17,1.81-4.17,4.17v10.51h-10.51c-2.36,0-4.17,1.81-4.17,4.17s1.81,4.17,4.17,4.17h10.51v10.33c0,2.36,1.81,4.17,4.17,4.17s4.17-1.81,4.17-4.17v-10.51h10.51c2.36,0,4.17-1.81,4.17-4.17s-1.99-3.99-4.17-3.99h0Zm-132.94,252.34c-5.47,0-8.21-4.38-10.26-7.66-2.05-3.28-3.01-4.65-4.92-4.65-1.78,0-2.87,1.37-4.92,4.65-1.91,3.28-4.65,7.66-10.26,7.66s-8.21-4.38-10.26-7.66c-2.05-3.28-3.01-4.65-4.92-4.65-1.78,0-3.15-1.37-3.15-3.15s1.37-3.15,3.15-3.15c5.47,0,8.21,4.38,10.26,7.66,2.05,3.28,3.01,4.65,4.92,4.65,1.78,0,2.87-1.37,4.92-4.65,1.91-3.28,4.65-7.66,10.26-7.66s8.21,4.38,10.26,7.66c2.05,3.28,3.01,4.65,4.92,4.65s2.87-1.5,4.92-4.65c1.91-3.28,4.65-7.66,10.26-7.66,1.78,0,3.15,1.37,3.15,3.15s-1.37,3.15-3.15,3.15c-1.91,0-2.87,1.37-4.92,4.65-1.91,3.15-4.65,7.66-10.26,7.66Z"/>
        <path class="cls-1"
              d="m105.02,171.47l17.53-17.53,17.53,17.53-17.53,17.54-17.54-17.53Zm163.68,142.89l16.12-16.36h-32.24l16.12,16.36Z"/>
        <path class="cls-1"
              d="m84.21,255.48c0,9.05,7.33,16.4,16.39,16.4,9.05,0,16.4-7.33,16.4-16.39v-.02c0-9.05-7.34-16.39-16.39-16.4-9.05,0-16.39,7.34-16.4,16.39,0,0,0,0,0,0Z"/>
    </g>
</svg>